<svg viewBox="0 0 920 220" xmlns="http://www.w3.org/2000/svg" font-family="ui-sans-serif, system-ui, -apple-system, 'Segoe UI', Roboto, sans-serif" role="img" aria-label="One refkit.search('lion') across four sources — every result arrives license-tagged">
  <defs>
    <clipPath id="cl1"><rect x="16" y="10" width="198" height="200" rx="14"/></clipPath>
    <clipPath id="cl2"><rect x="246" y="10" width="198" height="200" rx="14"/></clipPath>
    <clipPath id="cl3"><rect x="476" y="10" width="198" height="200" rx="14"/></clipPath>
    <clipPath id="cl4"><rect x="706" y="10" width="198" height="200" rx="14"/></clipPath>
  </defs>

  <rect x="16" y="10" width="198" height="200" rx="14" fill="#ffffff" stroke="#e2e8f0"/>
  <g clip-path="url(#cl1)"><rect x="16" y="10" width="198" height="60" fill="#dcfce7"/></g>
  <text x="32" y="41" font-size="16" font-weight="700" fill="#14532d">CC0</text>
  <text x="32" y="59" font-size="12" font-weight="600" fill="#166534">allowed</text>
  <text x="32" y="98" font-size="11" fill="#94a3b8">via the met</text>
  <text x="32" y="124" font-size="13" font-weight="500" fill="#0f172a">Handle Depicting a Lion</text>
  <text x="32" y="142" font-size="13" font-weight="500" fill="#0f172a">Subduing a Nubian</text>

  <rect x="246" y="10" width="198" height="200" rx="14" fill="#ffffff" stroke="#e2e8f0"/>
  <g clip-path="url(#cl2)"><rect x="246" y="10" width="198" height="60" fill="#dcfce7"/></g>
  <text x="262" y="41" font-size="16" font-weight="700" fill="#14532d">CC0</text>
  <text x="262" y="59" font-size="12" font-weight="600" fill="#166534">allowed</text>
  <text x="262" y="98" font-size="11" fill="#94a3b8">via art institute of chicago</text>
  <text x="262" y="124" font-size="13" font-weight="500" fill="#0f172a">Lion Hunt</text>
  <text x="262" y="142" font-size="13" font-weight="500" fill="#0f172a">Eugène Delacroix</text>

  <rect x="476" y="10" width="198" height="200" rx="14" fill="#ffffff" stroke="#e2e8f0"/>
  <g clip-path="url(#cl3)"><rect x="476" y="10" width="198" height="60" fill="#ccfbf1"/></g>
  <text x="492" y="41" font-size="16" font-weight="700" fill="#134e4a">CC-BY-SA 4.0</text>
  <text x="492" y="59" font-size="12" font-weight="600" fill="#115e59">+ attribution</text>
  <text x="492" y="98" font-size="11" fill="#94a3b8">via wikimedia commons</text>
  <text x="492" y="124" font-size="13" font-weight="500" fill="#0f172a">Lion (Panthera leo)</text>
  <text x="492" y="142" font-size="13" font-weight="500" fill="#0f172a">male 6y</text>
  <text x="492" y="184" font-size="11" fill="#94a3b8">© Charles J. Sharp</text>

  <rect x="706" y="10" width="198" height="200" rx="14" fill="#ffffff" stroke="#e2e8f0"/>
  <g clip-path="url(#cl4)"><rect x="706" y="10" width="198" height="60" fill="#ccfbf1"/></g>
  <text x="722" y="41" font-size="16" font-weight="700" fill="#134e4a">CC-BY 2.0</text>
  <text x="722" y="59" font-size="12" font-weight="600" fill="#115e59">+ attribution</text>
  <text x="722" y="98" font-size="11" fill="#94a3b8">via openverse</text>
  <text x="722" y="124" font-size="13" font-weight="500" fill="#0f172a">Lion</text>
  <text x="722" y="184" font-size="11" fill="#94a3b8">© Noveltyy</text>
</svg>
